<svg width="2045" height="650" viewBox="0 0 2045 650" fill="none" xmlns="http://www.w3.org/2000/svg">
<path d="M1691.51 314.996H1634.68C1598.1 314.996 1578.51 342.369 1578.51 387.984V552.881H1470.74V314.98H1425.01C1388.43 314.98 1368.84 342.352 1368.84 387.968V552.864H1261.06V227.007H1368.84V276.543C1386.49 238.089 1410.65 227.007 1446.59 227.007H1578.52V276.543C1596.17 238.089 1620.33 227.007 1656.27 227.007H1691.52L1691.51 314.996ZM1237.54 415.357H1012.85C1018.72 451.859 1041.58 472.715 1080.11 472.715C1108.85 472.715 1129.11 460.972 1135.64 440.132L1231 466.843C1207.5 523.54 1149.35 558.09 1080.11 558.09C963.191 558.09 909.629 467.488 909.629 389.952C909.629 313.706 956.653 222.459 1073.58 222.459C1197.68 222.459 1238.83 314.996 1238.83 383.436C1238.91 394.091 1238.48 404.743 1237.54 415.357ZM1133.03 352.144C1130.41 324.109 1110.15 298.06 1073.59 298.06C1039.61 298.06 1019.38 313.028 1012.85 352.144H1133.03ZM721.533 552.864H816.226L934.457 227.04H826.042L768.557 416.663L709.764 227.024H601.979L721.533 552.864ZM279.978 552.864H387.102V314.996H489.028V552.881H595.49V227.024H387.102V206.83C387.102 184.667 402.776 170.989 427.604 170.989H489.012V83H409.977C332.232 83 279.978 130.583 279.978 200.296V227.024H219.232V315.013H279.978V552.864Z" fill="#003912"/>
<path d="M1758.15 562.639C1794.94 562.639 1824.77 532.868 1824.77 496.151C1824.77 459.434 1794.94 429.68 1758.15 429.68C1721.35 429.68 1691.51 459.45 1691.51 496.168C1691.51 532.885 1721.35 562.639 1758.15 562.639Z" fill="#1DBF73"/>
</svg>
