<svg width="2045" height="650" viewBox="0 0 2045 650" fill="none" xmlns="http://www.w3.org/2000/svg">
<g clip-path="url(#clip0_1171_838)">
<path d="M468.145 290.442H316.739C314.863 290.443 313.064 291.188 311.737 292.514C310.41 293.84 309.664 295.638 309.663 297.514V371.5C309.664 373.377 310.41 375.176 311.736 376.504C313.063 377.832 314.862 378.58 316.739 378.583H375.803V470.501C375.803 470.501 362.541 475.024 325.875 475.024C282.617 475.024 222.187 459.222 222.187 326.413C222.187 193.578 285.112 176.096 344.187 176.096C395.324 176.096 417.354 185.1 431.371 189.431C435.775 190.781 439.85 186.401 439.85 182.49L456.74 111.008C456.74 109.182 456.121 106.977 454.035 105.481C448.344 101.424 413.613 82 325.875 82C224.798 82 121.118 124.983 121.118 331.591C121.118 538.214 239.824 569 339.854 569C422.678 569 472.921 533.625 472.921 533.625C474.992 532.477 475.218 529.586 475.218 528.259V297.51C475.218 293.61 472.051 290.442 468.145 290.442ZM1248.43 106.756C1248.44 105.827 1248.27 104.906 1247.92 104.046C1247.57 103.185 1247.05 102.402 1246.4 101.742C1245.75 101.081 1244.97 100.556 1244.11 100.196C1243.26 99.8367 1242.34 99.6498 1241.41 99.6464H1156.15C1155.22 99.6498 1154.3 99.8365 1153.44 100.196C1152.58 100.555 1151.8 101.079 1151.15 101.74C1150.49 102.4 1149.97 103.183 1149.62 104.043C1149.27 104.904 1149.09 105.826 1149.09 106.756L1149.11 271.419H1016.23V106.756C1016.24 105.827 1016.06 104.906 1015.71 104.045C1015.36 103.185 1014.84 102.402 1014.19 101.741C1013.54 101.081 1012.76 100.556 1011.9 100.196C1011.04 99.8366 1010.12 99.6498 1009.2 99.6464H923.948C922.071 99.6563 920.274 100.411 918.954 101.744C917.633 103.077 916.897 104.88 916.906 106.756V552.617C916.906 556.547 920.068 559.746 923.948 559.746H1009.2C1013.09 559.746 1016.23 556.543 1016.23 552.617V361.905H1149.11L1148.88 552.617C1148.88 556.547 1152.05 559.746 1155.95 559.746H1241.4C1245.31 559.746 1248.43 556.543 1248.43 552.617V106.756ZM629.017 165.267C629.017 134.583 604.406 109.79 574.043 109.79C543.71 109.79 519.079 134.583 519.079 165.267C519.079 195.914 543.71 220.771 574.043 220.771C604.406 220.771 629.017 195.914 629.017 165.267ZM622.921 458.566V252.757C622.926 250.88 622.186 249.078 620.864 247.746C619.542 246.414 617.745 245.661 615.867 245.651H530.886C526.988 245.651 523.499 249.671 523.499 253.582V548.44C523.499 557.11 528.902 559.682 535.895 559.682H612.461C620.861 559.682 622.921 555.557 622.921 548.305V458.566ZM1572.42 246.322H1487.82C1483.94 246.322 1480.79 249.517 1480.79 253.45V472.069C1480.79 472.069 1459.29 487.788 1428.79 487.788C1398.29 487.788 1390.19 473.955 1390.19 444.103V253.45C1390.19 249.517 1387.04 246.322 1383.16 246.322H1297.3C1293.43 246.322 1290.25 249.517 1290.25 253.45V458.536C1290.25 547.203 1339.69 568.895 1407.72 568.895C1463.52 568.895 1508.5 538.087 1508.5 538.087C1508.5 538.087 1510.65 554.32 1511.61 556.247C1512.59 558.167 1515.11 560.106 1517.84 560.106L1572.46 559.866C1576.34 559.866 1579.51 556.663 1579.51 552.749L1579.48 253.454C1579.48 249.517 1576.32 246.322 1572.42 246.322ZM1770.27 487.518C1740.93 486.625 1721.03 473.314 1721.03 473.314V332.124C1721.03 332.124 1740.66 320.095 1764.75 317.942C1795.21 315.216 1824.57 324.414 1824.57 397.044C1824.57 473.636 1811.32 488.751 1770.27 487.518ZM1803.64 236.31C1755.59 236.31 1722.91 257.736 1722.91 257.736V106.76C1722.91 102.822 1719.76 99.6464 1715.87 99.6464H1630.38C1629.45 99.6508 1628.53 99.8383 1627.68 100.198C1626.82 100.558 1626.04 101.083 1625.39 101.744C1624.73 102.405 1624.21 103.188 1623.86 104.048C1623.51 104.909 1623.33 105.83 1623.34 106.76V552.617C1623.34 556.547 1626.5 559.746 1630.39 559.746H1689.71C1692.38 559.746 1694.4 558.369 1695.9 555.962C1697.37 553.566 1699.5 535.406 1699.5 535.406C1699.5 535.406 1734.46 568.516 1800.63 568.516C1878.33 568.516 1922.88 529.129 1922.88 391.7C1922.88 254.268 1851.72 236.31 1803.64 236.31ZM867.938 245.613H803.989L803.891 161.172C803.891 157.978 802.244 156.38 798.549 156.38H711.402C708.015 156.38 706.195 157.873 706.195 161.124V248.384C706.195 248.384 662.524 258.917 659.572 259.772C658.099 260.199 656.805 261.092 655.884 262.318C654.963 263.543 654.465 265.034 654.466 266.567V321.4C654.466 325.344 657.617 328.517 661.515 328.517H706.195V460.426C706.195 558.407 774.957 568.032 821.359 568.032C842.561 568.032 867.923 561.23 872.109 559.678C874.642 558.748 876.113 556.127 876.113 553.285L876.184 492.966C876.184 489.029 872.86 485.853 869.116 485.853C865.39 485.853 855.857 487.368 846.042 487.368C814.632 487.368 803.989 472.77 803.989 453.875L803.985 328.513H867.938C871.836 328.513 874.991 325.337 874.991 321.396V252.712C874.995 251.782 874.816 250.861 874.464 250.001C874.112 249.141 873.593 248.359 872.938 247.7C872.283 247.04 871.504 246.517 870.646 246.159C869.788 245.801 868.867 245.615 867.938 245.613Z" fill="#121110"/>
</g>
<defs>
<clipPath id="clip0_1171_838">
<rect width="1802" height="487" fill="white" transform="translate(121 82)"/>
</clipPath>
</defs>
</svg>
