<svg width="62" height="62" viewBox="0 0 62 62" fill="none" xmlns="http://www.w3.org/2000/svg">
<rect x="2" y="2" width="58" height="58" rx="29" fill="white"/>
<rect x="2" y="2" width="58" height="58" rx="29" stroke="white" stroke-width="4"/>
<g clip-path="url(#clip0_394_3527)">
<rect x="4" y="4" width="54" height="54" rx="27" fill="white"/>
<rect x="29.5" y="4" width="3" height="6" fill="#028172"/>
<rect x="4" y="32" width="3" height="6" transform="rotate(-90 4 32)" fill="#028172"/>
<rect x="52" y="33" width="3" height="6" transform="rotate(-90 52 33)" fill="#028172"/>
<rect x="45.5" y="46" width="3" height="6" transform="rotate(-45 45.5 46)" fill="#028172"/>
<rect width="3" height="6" transform="matrix(0.707107 0.707107 0.707107 -0.707107 10 48)" fill="#028172"/>
<rect width="3" height="6" transform="matrix(0.707107 0.707107 0.707107 -0.707107 45.5 16)" fill="#028172"/>
<rect x="10" y="14" width="3" height="6" transform="rotate(-45 10 14)" fill="#028172"/>
<rect x="30" y="52" width="3" height="6" fill="#028172"/>
<path d="M29.5 17.5C29.5 16.6716 30.1716 16 31 16C31.8284 16 32.5 16.6716 32.5 17.5V32.5C32.5 33.3284 31.8284 34 31 34C30.1716 34 29.5 33.3284 29.5 32.5V17.5Z" fill="black"/>
<rect x="30" y="32" width="3" height="13.197" rx="1.5" transform="rotate(-45 30 32)" fill="black"/>
<circle cx="31" cy="31" r="5" fill="#028172" stroke="white" stroke-width="2"/>
</g>
<rect x="5.5" y="5.5" width="51" height="51" rx="25.5" stroke="#028172" stroke-width="3"/>
<defs>
<clipPath id="clip0_394_3527">
<rect x="4" y="4" width="54" height="54" rx="27" fill="white"/>
</clipPath>
</defs>
</svg>
